<svg version="1.1"
     baseProfile="full"
     width="392" height="80"
     xmlns="http://www.w3.org/2000/svg">
  <defs>
    <mask id="text" fill="black">
    	<rect width="100%" height="100%" fill="white"/>
    	<rect x="16" y="8" width="16" height="48"/>
      <rect x="120" y="32" width="8" height="24"/>
      <rect x="232" y="48" width="8" height="8"/>
      <rect x="320" y="32" width="8" height="8"/>        
    </mask>
    <mask id="beam" fill="black">
    	<rect width="100%" height="100%" fill="white"/>
      <rect x="64" y="16" width="16" height="32"/>
      <rect x="112" y="16" width="32" height="32"/>
      <rect x="176" y="16" width="40" height="32"/>
      <rect x="264" y="16" width="40" height="32"/>
    	<g fill-opacity=".4">
      	<rect x="88" y="16" width="16" height="32"/>
      	<rect x="152" y="16" width="16" height="32"/>
        <rect x="224" y="16" width="32" height="32"/>
        <rect x="312" y="16" width="16" height="32"/>
      </g>
    </mask>
  </defs>
  <!--Text-->
  <g fill="black" fill-opacity="1" mask="url(#text)">
    <!--D--><path transform="translate(0 0)" 
      d="M0 0 H40 V8 H48 V56 H40 V64 H0 Z"/> 
    <!--d--><path transform="translate(104 0)"
      d="M24 0 H40 V64 H8 V56 H0 V32 H8 V24 H24 Z"/> 
    <!--s--><path transform="translate(152 0)"
      d="M0 24 H32 V32 H16 V40 H32 V64 H0 V56 H16 V48 H0 Z"/> 
    <!--l--><path transform="translate(192 0)"
      d="M0 0 H16 V64 H0 Z"/> 
    <!--a--><path transform="translate(216 0)"
      d="M0 24 H32 V32 H40 V64 H0 V40 H24 V32 H0 Z"/> 
    <!--s--><path transform="translate(264 0)"
      d="M0 24 H32 V32 H16 V40 H32 V64 H0 V56 H16 V48 H0 Z"/> 
    <!--e--><path transform="translate(304 0)"
      d="M8 24 H32 V32 H40 V48 H16 V56 H40 V64 H8 V56 H0 V32 H8 Z"/> 
    <!--r--><path transform="translate(352 0)"
      d="M0 24 H8 V32 H16 V24 H32 V32 H24 V40 H16 V64 H0 Z"/> 
  </g>
  <!--Beam-->
  <g transform="translate(40 8)" fill="red" mask="url(#beam)">
    <path d="M16 24 H24 V16 H48 V24 H56 V32 H336 V40 H56 V48 H48 V56 H24 V48 H16 Z"/>
    <g fill-opacity=".8">
    	<rect width="8" height="8" x="32" y="8"/>
    	<rect width="8" height="8" x="48" y="8"/>
    	<rect width="8" height="8" x="56" y="16"/>
    	<rect width="8" height="8" x="336" y="32"/>
    	<rect width="8" height="8" x="56" y="48"/>
    	<rect width="8" height="8" x="48" y="56"/>
    	<rect width="8" height="8" x="32" y="56"/>
    	<rect width="8" height="8" x="16" y="56"/>
    	<rect width="8" height="8" x="8" y="48"/>
    	<rect width="8" height="8" x="8" y="32"/>
    	<rect width="8" height="8" x="8" y="16"/>
    	<rect width="8" height="8" x="16" y="8"/>
    </g>
    <g fill-opacity=".6">
      <rect width="8" height="8" x="32" y="0"/>
      <rect width="8" height="8" x="344" y="32"/>
      <rect width="8" height="8" x="32" y="64"/>
      <rect width="8" height="8" x="0" y="32"/>
    </g>
  </g>
</svg>