<?xml version="1.0" standalone="no"?>
<!DOCTYPE svg PUBLIC "-//W3C//DTD SVG 20010904//EN"
 "http://www.w3.org/TR/2001/REC-SVG-20010904/DTD/svg10.dtd">
<svg version="1.0" xmlns="http://www.w3.org/2000/svg"
 width="260.000000pt" height="260.000000pt" viewBox="0 0 260.000000 260.000000"
 preserveAspectRatio="xMidYMid meet">
<metadata>
Created by potrace 1.11, written by Peter Selinger 2001-2013
</metadata>
<g transform="translate(0.000000,260.000000) scale(0.100000,-0.100000)"
fill="#000000" stroke="none">
<path d="M1182 2325 c0 -24 4 -42 9 -40 4 3 11 1 14 -5 4 -6 1 -9 -6 -8 -16 4
-23 -53 -7 -63 7 -4 19 -3 28 4 10 8 9 5 -3 -9 -9 -11 -14 -23 -11 -26 3 -3 1
-9 -5 -12 -6 -4 -8 2 -6 14 2 11 0 20 -6 20 -5 0 -9 -65 -9 -155 l0 -155 -115
0 -115 0 0 120 0 120 -120 0 -120 0 0 -120 0 -120 -120 0 -120 0 0 -120 0
-120 120 0 120 0 0 -115 0 -115 -142 -1 c-79 0 -187 0 -241 0 l-97 0 1 -49 c2
-32 6 -47 13 -43 6 3 5 0 -1 -8 -17 -17 -17 -56 0 -62 9 -4 9 -6 0 -6 -8 -1
-13 -15 -13 -36 0 -27 4 -35 18 -35 10 0 24 6 31 13 11 10 12 9 7 -1 -6 -10
10 -13 81 -11 48 1 145 1 216 0 l127 -1 0 -115 0 -115 -120 0 -120 0 0 -120 0
-120 120 0 120 0 0 -120 0 -120 120 0 120 0 0 120 0 120 115 0 115 0 1 -127
c0 -71 1 -163 1 -206 0 -61 2 -76 12 -68 9 8 13 7 13 -4 0 -7 -5 -13 -11 -12
-6 1 -12 -12 -14 -29 l-3 -32 70 -1 c56 -1 72 2 81 17 11 16 11 16 6 -1 -3
-11 0 -17 10 -17 9 0 12 5 8 12 -6 10 -5 10 7 1 8 -7 25 -11 36 -10 20 1 22 6
21 74 -1 50 -4 70 -12 66 -6 -4 -5 0 2 9 7 9 12 22 11 30 -1 7 -1 77 0 156 l1
142 115 0 115 0 0 -120 0 -120 120 0 120 0 0 120 0 120 120 0 120 0 0 120 0
120 -120 0 -120 0 0 115 0 115 355 0 355 0 0 120 0 120 -355 0 -355 0 0 115 0
115 120 0 120 0 0 120 0 120 -120 0 -120 0 0 120 0 120 -120 0 -120 0 0 -120
0 -120 -115 0 -115 0 -1 128 c-1 70 -1 135 0 144 2 13 -3 16 -16 12 -17 -5
-17 -5 0 6 19 13 24 45 5 34 -10 -6 -10 -4 0 7 6 7 12 24 12 37 0 16 -4 21
-12 16 -10 -6 -10 -4 0 8 18 23 12 88 -8 88 -9 0 -22 -6 -29 -12 -11 -10 -13
-10 -7 0 5 8 0 12 -13 12 -12 0 -21 -6 -21 -12 0 -9 -3 -9 -8 -3 -11 16 -74
18 -84 3 -6 -10 -8 -10 -8 0 0 6 -11 12 -25 12 -22 0 -24 -4 -23 -45z m99 -3
c-7 -2 -18 1 -23 6 -8 8 -4 9 13 5 13 -4 18 -8 10 -11z m122 5 c4 3 7 2 7 -4
0 -6 -8 -13 -18 -15 -12 -4 -18 1 -18 13 0 12 4 15 12 9 6 -6 14 -7 17 -3z
m-177 -9 c5 -7 3 -8 -6 -3 -10 6 -12 4 -6 -11 5 -14 4 -16 -5 -7 -6 6 -8 16
-5 22 9 14 13 14 22 -1z m26 -70 c-2 -10 -9 -18 -15 -18 -6 0 -7 3 -4 7 4 3 3
11 -3 17 -6 8 -3 12 9 12 12 0 17 -6 13 -18z m142 -6 c3 -5 -1 -9 -9 -9 -8 0
-15 4 -15 9 0 4 4 8 9 8 6 0 12 -4 15 -8z m-109 -12 c-3 -5 -1 -10 6 -10 7 0
10 -3 6 -6 -9 -9 -28 6 -22 17 4 5 8 9 11 9 3 0 2 -4 -1 -10z m3 -36 c1 -1 -4
-7 -13 -14 -13 -11 -14 -10 -9 5 5 11 4 16 -3 12 -5 -3 -10 0 -10 8 0 12 3 12
16 3 9 -7 17 -13 19 -14z m76 0 c24 -24 19 -30 -6 -8 -13 10 -25 20 -27 21 -2
2 1 3 7 3 6 0 18 -7 26 -16z m-32 -26 c-2 -10 -9 -18 -15 -18 -6 0 -7 3 -4 7
4 3 3 11 -3 17 -6 8 -3 12 9 12 12 0 17 -6 13 -18z m-88 -9 c-2 -4 2 -10 8
-13 7 -3 2 -3 -11 0 -17 5 -21 3 -16 -6 5 -8 4 -11 -3 -6 -15 9 -5 33 13 33 8
0 12 -4 9 -8z m-294 -389 l0 -120 -120 0 -120 0 0 120 0 120 120 0 120 0 0
-120z m940 0 l0 -120 -120 0 -120 0 0 120 0 120 120 0 120 0 0 -120z m-1535
-370 c3 -6 -1 -7 -9 -4 -18 7 -21 14 -7 14 6 0 13 -4 16 -10z m100 0 c-3 -5
-12 -10 -18 -10 -7 0 -6 4 3 10 19 12 23 12 15 0z m-40 -40 c6 -1 12 -4 15 -7
3 -2 1 -4 -5 -3 -22 5 -29 -1 -15 -11 10 -7 11 -9 2 -7 -8 2 -12 7 -10 10 2 4
-6 14 -17 23 l-20 16 20 -9 c11 -6 25 -11 30 -12z m-69 -2 c5 -7 3 -8 -6 -3
-9 6 -12 4 -8 -7 4 -8 0 -15 -7 -15 -10 0 -11 5 -4 19 11 21 15 22 25 6z m-61
-46 c-3 -3 -11 0 -18 7 -9 10 -8 11 6 5 10 -3 15 -9 12 -12z m120 0 c-3 -3
-11 0 -18 7 -9 10 -8 11 6 5 10 -3 15 -9 12 -12z m-33 -24 c-2 -10 -9 -18 -15
-18 -6 0 -7 3 -4 7 4 3 3 11 -3 17 -6 8 -3 12 9 12 12 0 17 -6 13 -18z m94 10
c5 -7 3 -8 -6 -3 -9 5 -11 1 -6 -16 3 -13 3 -18 0 -11 -3 6 -10 10 -15 6 -13
-7 -7 19 6 28 13 10 13 10 21 -4z m-199 -22 c0 -8 -6 -12 -15 -9 -11 5 -11 7
0 14 7 5 13 9 14 9 0 0 1 -6 1 -14z m63 -11 c0 -2 -5 -7 -12 -11 -7 -5 -8 -3
-3 6 6 9 4 12 -7 8 -8 -4 -15 0 -15 7 0 10 5 11 19 4 10 -5 18 -12 18 -14z
m17 -20 c0 -8 -5 -11 -10 -8 -7 4 -8 -1 -3 -13 6 -15 5 -16 -5 -7 -10 10 -9
15 1 28 15 19 17 19 17 0z m66 6 c12 7 17 7 13 1 -6 -10 22 -27 39 -23 6 2 6
-1 2 -5 -12 -12 -38 -14 -30 -1 4 7 0 8 -11 4 -11 -5 -15 -3 -10 5 5 7 2 9 -9
5 -9 -3 -21 1 -28 11 -11 14 -11 15 1 5 9 -9 19 -9 33 -2z m-126 -8 c-4 -3 -2
-11 3 -18 7 -8 5 -12 -5 -12 -8 0 -11 5 -8 10 4 7 -1 8 -12 3 -15 -5 -16 -4
-5 9 7 8 17 15 23 15 6 0 7 -3 4 -7z m97 -37 c-3 -8 -14 -14 -24 -13 -10 1
-16 5 -14 9 3 5 9 6 14 3 5 -3 11 -1 15 5 9 15 15 12 9 -4z m-60 -4 c3 -5 -1
-9 -9 -9 -8 0 -12 4 -9 9 3 4 7 8 9 8 2 0 6 -4 9 -8z m626 -372 l0 -120 -120
0 -120 0 0 120 0 120 120 0 120 0 0 -120z m940 0 l0 -120 -120 0 -120 0 0 120
0 120 120 0 120 0 0 -120z m-620 -370 c0 -5 -5 -10 -11 -10 -5 0 -7 5 -4 10 3
6 8 10 11 10 2 0 4 -4 4 -10z m64 2 c2 -4 -5 -9 -17 -9 -17 -2 -19 0 -7 7 18
12 18 12 24 2z m56 -2 c0 -5 -5 -10 -11 -10 -5 0 -7 5 -4 10 3 6 8 10 11 10 2
0 4 -4 4 -10z m-67 -56 c-7 -19 -10 -18 -16 5 -3 13 -1 18 9 14 7 -2 10 -11 7
-19z m-48 -2 c-3 -3 -11 0 -18 7 -9 10 -8 11 6 5 10 -3 15 -9 12 -12z m132 12
c-3 -3 -12 -4 -19 -1 -8 3 -5 6 6 6 11 1 17 -2 13 -5z m-181 -16 c5 -7 3 -8
-6 -3 -10 6 -12 4 -6 -11 5 -14 4 -16 -5 -7 -6 6 -8 16 -5 22 9 14 13 14 22
-1z m140 -33 c3 -19 -10 -19 -26 0 -11 13 -10 14 5 9 14 -6 16 -4 10 7 -5 8
-4 11 0 6 5 -4 10 -14 11 -22z m-120 -11 c1 -9 0 -13 -4 -10 -3 4 -7 14 -8 22
-1 9 0 13 4 10 3 -4 7 -14 8 -22z m58 8 c3 -5 -1 -9 -9 -9 -8 0 -12 4 -9 9 3
4 7 8 9 8 2 0 6 -4 9 -8z m-6 -26 c-2 -1 -10 -7 -20 -14 -12 -10 -18 -10 -24
-1 -5 8 -3 9 6 4 10 -6 12 -4 7 7 -4 12 -1 14 14 11 11 -3 18 -6 17 -7z m105
-9 c4 3 7 2 7 -4 0 -6 -8 -13 -18 -15 -12 -4 -18 1 -18 13 0 12 4 15 12 9 6
-6 14 -7 17 -3z m-54 -20 c0 -9 -2 -9 -5 0 -3 7 -13 9 -22 6 -14 -4 -14 -3 -2
5 16 12 30 7 29 -11z m-96 -37 c3 -11 1 -18 -4 -14 -5 3 -9 12 -9 20 0 20 7
17 13 -6z"/>
</g>
</svg>
